<?xml version="1.0" encoding="UTF-8"?>
<svg id="a" data-name="Calque 1" xmlns="http://www.w3.org/2000/svg" viewBox="0 0 271.93 96.2">
  <defs>
    <style>
      .b {
        fill: #172227;
      }

      .c {
        fill: #00b800;
      }
    </style>
  </defs>
  <g>
    <path class="c" d="M85.78,63.63c0-2.91-.05-5.82,.01-8.72,.06-2.89,1.04-3.77,3.84-4.56,1.06-.3,2.35-1.33,2.65-2.3,.26-.85-.45-2.35-1.2-3.11-10.7-10.82-21.47-21.56-32.25-32.3-1.29-1.28-2.56-2.67-4.08-3.61-3.74-2.31-7.95-1.72-11.31,1.55-4.56,4.43-9.01,8.97-13.5,13.46-6.84,6.84-13.71,13.64-20.46,20.56-.88,.9-1.63,2.4-1.59,3.58,.06,1.73,1.74,2.11,3.31,2.33,2.06,.29,3.1,1.76,3.13,3.68,.09,6.42,.08,12.85,0,19.27-.03,2.04-1.32,2.81-3.92,2.76-2.6-.05-3.65-.79-3.69-3-.1-4.53-.09-9.06-.03-13.59,.02-1.48-.37-2.4-1.75-3.25-5.65-3.45-6.62-11.17-1.95-16.13,4.5-4.77,9.22-9.33,13.85-13.97,6.88-6.89,13.75-13.79,20.67-20.64,7.59-7.51,17.71-7.47,25.23,.04,11.24,11.23,22.43,22.52,33.75,33.68,6.29,6.2,3.66,14.49-1.75,17.48-.66,.36-1.14,1.61-1.16,2.46-.11,4.33-.03,8.66-.05,12.98,0,1.35,.14,3.1-1.47,3.41-1.68,.32-3.55,.13-5.23-.29-.53-.13-.96-1.7-.99-2.63-.12-3.04-.05-6.09-.05-9.13Z"/>
    <path class="b" d="M80.04,64.05c-.44-11.89,.35-18.24-10.23-25.64-7.02-4.27-17.96-1.86-22.29,4.12-6.94,9.1-3.6,22.32-4.27,33.11,0,2.57,1.1,3.48,3.9,3.44,2.73-.04,3.68-.88,3.69-3.4,.02-6.09-.15-12.18,.08-18.26,.02-6.36,2.82-14.51,10.6-13.55,4.62,.41,7.99,2.85,9.66,7.24,1.77,7.11,.51,14.72,.85,22-.57,18.86-34.54,18.27-46.23,9.75-2.26-1.32-3.14-1.08-5.03,1.66-5.47,6.37,17.14,11.6,21.3,11.52,12.23,.87,27.15-1.48,34.76-12.03,1.74-2.79,2.13-5.45,2.71-9.38,.24-1.63,.61-4.68,.52-10.58Z"/>
    <path class="c" d="M30.02,51.9c-4.66,.17-8.28,3.91-8.09,8.38,.19,4.59,4.03,8.29,8.41,8.12,4.59-.18,8.19-3.93,8.09-8.44-.1-4.55-3.93-8.22-8.41-8.06Z"/>
  </g>
  <g>
    <path class="b" d="M123.98,68.16c-1.6,5.38-5.03,8.28-9.46,8.28-5.32,0-8.04-3.78-8.04-9.88v-18.98h8.04v16.74c0,2.9,1.3,4.85,4.26,4.85,3.43,0,5.56-2.42,5.56-5.97v-15.61h8.1v28.03h-7.87v-7.45h-.59Z"/>
    <path class="b" d="M146.57,55.09c1.6-5.44,5.03-8.28,9.4-8.28,5.38,0,8.1,3.73,8.1,9.82v18.98h-8.04v-16.74c0-2.84-1.3-4.79-4.26-4.79-3.43,0-5.62,2.42-5.62,5.91v15.61h-8.04v-28.03h7.86v7.51h.59Z"/>
    <path class="b" d="M168.45,57.34c0-6.27,4.73-9.76,12.71-9.76h14.19v6.03h-3.08c-1.36,0-3.13-.06-5.44-.24v.59c3.49,.65,6.45,1.95,6.45,5.2,0,4.67-4.43,7.69-12.3,7.69-1.72,0-3.31-.18-4.67-.47l-.47,.77c-.3,.53-.53,1.06-.53,1.54,0,1.01,.71,1.42,2.48,1.42,3.07,0,6.27-.18,9.17-.18,6.21,0,9.05,2.72,9.05,7.27,0,5.85-3.78,8.81-15.2,8.81-10.7,0-13.72-2.19-13.72-5.68,0-2.48,2.78-4.26,6.56-5.03v-.3c-3.08-.47-4.32-1.95-4.32-3.9,0-1.6,1.24-3.02,3.55-4.02l2.13-1.06c-4.26-1.36-6.56-4.32-6.56-8.69Zm4.67,20.34c0,1.89,1.48,2.72,8.22,2.72s8.46-1.01,8.46-2.96c0-1.36-.95-2.31-3.19-2.31h-9.52c-2.48,0-3.96,1.18-3.96,2.54Zm2.48-20.05c0,2.25,1.36,3.96,5.38,3.96s5.5-1.71,5.5-3.96-1.66-3.96-5.5-3.96-5.38,1.72-5.38,3.96Z"/>
    <path class="b" d="M207.48,75.61h-8.04V37.65h8.04v37.96Z"/>
    <path class="b" d="M211.91,62.19c0-9.7,5.26-15.38,14.37-15.38,8.63,0,12.71,5.09,12.71,12.83,0,1.18-.06,2.31-.18,3.78h-18.92c.41,4.49,2.42,6.5,6.33,6.5s4.97-1.77,5.68-3.9l6.74,1.83c-1.24,4.85-4.49,8.52-12.48,8.52-8.46,0-14.25-4.67-14.25-14.19Zm19.69-2.84c-.06-4.38-1.89-6.5-5.56-6.5s-5.68,1.89-6.15,6.5h11.71Z"/>
  </g>
  <g>
    <path class="c" d="M237.46,38.82v-1.17h1.48v1.17h-1.48Zm.09,8.27v-6.93h1.29v6.93h-1.29Z"/>
    <path class="c" d="M241.9,41.96c.39-1.25,1.28-1.97,2.51-1.97,1.37,0,2.03,.82,2.15,2.08h.15c.33-1.29,1.16-2.08,2.52-2.08,1.54,0,2.27,1.01,2.27,2.52v4.59h-1.29v-4.28c0-.95-.42-1.66-1.5-1.66-1.26,0-2.06,.79-2.06,1.97v3.96h-1.29v-4.28c0-.95-.42-1.66-1.5-1.66-1.23,0-2.06,.79-2.06,1.97v3.96h-1.29v-6.93h1.26v1.8h.13Z"/>
    <path class="c" d="M254.35,41.96c.39-1.25,1.28-1.97,2.51-1.97,1.37,0,2.03,.82,2.15,2.08h.15c.33-1.29,1.16-2.08,2.52-2.08,1.54,0,2.27,1.01,2.27,2.52v4.59h-1.29v-4.28c0-.95-.42-1.66-1.5-1.66-1.26,0-2.06,.79-2.06,1.97v3.96h-1.29v-4.28c0-.95-.42-1.66-1.5-1.66-1.23,0-2.06,.79-2.06,1.97v3.96h-1.29v-6.93h1.26v1.8h.13Z"/>
    <path class="c" d="M264.98,43.6c0-2.27,1.38-3.62,3.47-3.62s3.47,1.35,3.47,3.62-1.28,3.67-3.47,3.67-3.47-1.41-3.47-3.67Zm1.29-.02c0,1.56,.7,2.55,2.17,2.55s2.2-.99,2.2-2.55-.76-2.49-2.18-2.49-2.18,.94-2.18,2.49Z"/>
  </g>
</svg>